<svg width="45" height="45" viewBox="0 0 45 45" fill="none" xmlns="http://www.w3.org/2000/svg">
<path d="M0 22.105C0 34.3132 9.89675 44.21 22.105 44.21C34.3132 44.21 44.21 34.3132 44.21 22.105C44.21 9.89675 34.3132 0 22.105 0C9.89675 0 0 9.89675 0 22.105Z" fill="white"/>
<path d="M29.245 26.7991L28.893 26.1031L22.101 12.5591L19.525 17.7031L19.461 17.8391L18.229 20.2951L17.989 20.7751L12.525 31.6711H13.549L14.893 28.9911L15.829 27.1271H21.661H24.117L25.885 30.6551L26.397 31.6711H31.685L29.245 26.7991ZM27.869 26.0951H24.629L20.485 17.8231L22.109 14.5911L27.877 26.0951H27.869ZM16.341 26.0951L18.237 22.3191L20.133 26.0951H16.349H16.341ZM21.149 26.0951L18.749 21.3031L19.981 18.8471L23.613 26.0951H21.157H21.149ZM26.909 30.6471L25.141 27.1191H28.381L30.149 30.6471H26.909Z" fill="#FDA311"/>
</svg>
